# xmcd
#
# Track frame offsets: 
#        150
#        15504
#        32703
#        50862
#        71196
#        88255
#        107882
#        119967
#        133433
#        148451
#        162150
#        176276
#        191075
#        202838
#        218570
#        234800
#        247871
#        260274
#        278708
#        291129
#
# Disc length: 4026 seconds
#
# Revision: 0
# Processed by: cddbd v1.5.2PL0 Copyright (c) Steve Scherf et al.
# Submitted via: ExactAudioCopy v1.1
#
DISCID=340fb814
DTITLE=Various Artist - Classic Country CD2
DYEAR=2016
DGENRE=Country
TTITLE0=Billy Ray Cyrus - Achy Breaky Heart
TTITLE1=Trio - To Know Him Is To Love Him
TTITLE2=Sam Hunt - Take Your Time
TTITLE3=K D Lang - Constant Craving 
TTITLE4=C W McCall - Convoy
TTITLE5=The Mavericks - Dance The Night Away
TTITLE6=Seasick Steve - Walkin' Man
TTITLE7=Loretta Lynn - Coal Miner's Daughter
TTITLE8=Nitty Gritty Dirt Band - Fishin' In The Dark
TTITLE9=Dwight Yoakam - Guitars, Cadillacs
TTITLE10=John Michael Montgomery - Life's A Dance
TTITLE11=Slim Whitman - Indian Love Call
TTITLE12=The Everley Brothers - I Walk The Line
TTITLE13=Whitney Duncan - Skinny Dippin'
TTITLE14=Michael Peterson - From Here To Eternity
TTITLE15=Little Feat - Willin'
TTITLE16=Vern Gosdin - Till The End
TTITLE17=David Lee Roth - Cheatin' Heart Cafe
TTITLE18=Chicago - Flight 602
TTITLE19=Lester Flatt and Earl Scruggs - Foggy Mountain Breakdown
EXTD=
EXTT0=
EXTT1=
EXTT2=
EXTT3=
EXTT4=
EXTT5=
EXTT6=
EXTT7=
EXTT8=
EXTT9=
EXTT10=
EXTT11=
EXTT12=
EXTT13=
EXTT14=
EXTT15=
EXTT16=
EXTT17=
EXTT18=
EXTT19=
PLAYORDER=
